<svg xmlns="http://www.w3.org/2000/svg" viewBox="0 0 566.923 97.333"><defs><style>.a{fill:#fff;}</style></defs><title>burger_and_sauce_logo_wh</title><path class="a" d="M564.624,97.335H2.3a2.3,2.3,0,0,1-2.3-2.3H0V2.3A2.3,2.3,0,0,1,2.3,0H564.624a2.3,2.3,0,0,1,2.3,2.3V95.033a2.3,2.3,0,0,1-2.3,2.3ZM4.6,92.735H562.324V4.6H4.6Z" transform="translate(-0.001 -0.002)"/><path class="a" d="M54.579,61.788A17.24,17.24,0,0,1,49,74.873a19.8,19.8,0,0,1-14.143,5.252H19.012a1.582,1.582,0,0,1-1.152-.506,1.688,1.688,0,0,1-.507-1.245V19.219a1.7,1.7,0,0,1,.507-1.245,1.589,1.589,0,0,1,1.152-.506H35.045A19.122,19.122,0,0,1,48.451,22.4a16.188,16.188,0,0,1,5.391,12.484,15.6,15.6,0,0,1-1.567,6.907,16.925,16.925,0,0,1-4.423,5.621.833.833,0,0,0,0,1.382,14.945,14.945,0,0,1,4.93,5.576A15.843,15.843,0,0,1,54.579,61.788ZM31.267,43.543H34.4a7.055,7.055,0,0,0,5.524-2.255,8.438,8.438,0,0,0,2.027-5.853,7.625,7.625,0,0,0-2.073-5.711A8.161,8.161,0,0,0,33.935,27.7H31.267a1.675,1.675,0,0,0-1.152.369,1.4,1.4,0,0,0-.414,1.106v12.9a1.4,1.4,0,0,0,.414,1.106A1.663,1.663,0,0,0,31.267,43.543Zm0,26.262h2.949A8.015,8.015,0,0,0,40.2,67.456a8.265,8.265,0,0,0,2.3-6.037,7.851,7.851,0,0,0-2.212-5.8A8.092,8.092,0,0,0,34.3,53.4H31.267a1.676,1.676,0,0,0-1.152.368,1.412,1.412,0,0,0-.414,1.106V68.33a1.4,1.4,0,0,0,.414,1.106A1.664,1.664,0,0,0,31.267,69.805Z" transform="translate(-0.001 -0.002)"/><path class="a" d="M79.924,70.081a5.388,5.388,0,0,0,4.468-2.027,8.492,8.492,0,0,0,1.613-5.437v-43.4a1.694,1.694,0,0,1,.506-1.245,1.589,1.589,0,0,1,1.152-.506H96.6a1.73,1.73,0,0,1,1.751,1.709V63.817q0,7.835-5.022,12.44t-13.406,4.6q-8.109,0-13.223-4.7a15.98,15.98,0,0,1-5.114-12.348v-44.6a1.7,1.7,0,0,1,.507-1.245,1.589,1.589,0,0,1,1.152-.506h8.938a1.73,1.73,0,0,1,1.751,1.709V62.614a8.485,8.485,0,0,0,1.612,5.437A5.287,5.287,0,0,0,79.924,70.081Z" transform="translate(-0.001 -0.002)"/><path class="a" d="M119.815,80.125h-9.03a1.582,1.582,0,0,1-1.152-.506,1.688,1.688,0,0,1-.507-1.245V19.219a1.7,1.7,0,0,1,.507-1.245,1.589,1.589,0,0,1,1.152-.506h15.2q9.674,0,14.972,4.744t5.3,13.5a19.565,19.565,0,0,1-1.889,8.846,17.807,17.807,0,0,1-6.036,6.634,1.626,1.626,0,0,0-.737.969,3.2,3.2,0,0,0,.277,1.519l9.4,24.05a1.674,1.674,0,0,1-.138,1.659,1.72,1.72,0,0,1-1.52.737h-9.675a1.7,1.7,0,0,1-.968-.276,1.566,1.566,0,0,1-.6-.922l-7.647-21.379a2.368,2.368,0,0,0-.507-.921,1.5,1.5,0,0,0-.875-.184h-2.58a1.618,1.618,0,0,0-1.06.231,1.239,1.239,0,0,0-.23.874V78.374a1.7,1.7,0,0,1-.507,1.245A1.593,1.593,0,0,1,119.815,80.125Zm3.225-35.108h2.765a7.215,7.215,0,0,0,5.665-2.44,9.164,9.164,0,0,0,2.166-6.313,8.588,8.588,0,0,0-2.12-6.127,7.459,7.459,0,0,0-5.711-2.256H123.04a1.56,1.56,0,0,0-1.152.413,1.691,1.691,0,0,0-.414,1.245V43.451a1.435,1.435,0,0,0,1.291,1.566A1.4,1.4,0,0,0,123.04,45.017Z" transform="translate(-0.001 -0.002)"/><path class="a" d="M190.305,48.888V63.262a16.466,16.466,0,0,1-5.345,12.672,21.015,21.015,0,0,1-27.044,0,16.4,16.4,0,0,1-5.39-12.672V34.421a16.506,16.506,0,0,1,5.436-12.669A19.33,19.33,0,0,1,171.6,16.731q8.382,0,13.544,4.884t5.161,12.9a3.839,3.839,0,0,1-.415,2.027,1.466,1.466,0,0,1-1.336.645H179.8a1.527,1.527,0,0,1-1.152-.553,1.842,1.842,0,0,1-.507-1.29,8.538,8.538,0,0,0-1.8-5.711,6.014,6.014,0,0,0-4.836-2.119,6.522,6.522,0,0,0-4.653,1.888,6.166,6.166,0,0,0-1.982,4.652V63.539a6.2,6.2,0,0,0,1.935,4.7,6.559,6.559,0,0,0,4.7,1.843,6.793,6.793,0,0,0,4.883-1.751,6.293,6.293,0,0,0,1.842-4.791V58.563a1.625,1.625,0,0,0-.46-1.2,1.516,1.516,0,0,0-1.106-.461h-3.409a1.687,1.687,0,0,1-1.243-.505,1.578,1.578,0,0,1-.507-1.153V48.888a1.62,1.62,0,0,1,.553-1.243,1.743,1.743,0,0,1,1.2-.508h15.3a1.733,1.733,0,0,1,1.747,1.719Z" transform="translate(-0.001 -0.002)"/><path class="a" d="M232.6,71.188v7.28a1.589,1.589,0,0,1-.506,1.152,1.692,1.692,0,0,1-1.244.506h-29.21a1.586,1.586,0,0,1-1.151-.506,1.688,1.688,0,0,1-.507-1.245V19.219a1.692,1.692,0,0,1,.507-1.245,1.587,1.587,0,0,1,1.151-.506h29.21a1.728,1.728,0,0,1,1.75,1.706V26.5a1.587,1.587,0,0,1-.506,1.151,1.69,1.69,0,0,1-1.244.508h-16.77a1.749,1.749,0,0,0-1.2.506,1.624,1.624,0,0,0-.553,1.245V41.424a1.91,1.91,0,0,0,1.751,1.751h7.371a1.731,1.731,0,0,1,1.751,1.711v7.227a1.591,1.591,0,0,1-.507,1.153,1.69,1.69,0,0,1-1.244.5h-7.371a1.745,1.745,0,0,0-1.2.508,1.623,1.623,0,0,0-.553,1.243V67.688a1.91,1.91,0,0,0,1.751,1.751h16.77a1.731,1.731,0,0,1,1.75,1.712v.039Z" transform="translate(-0.001 -0.002)"/><path class="a" d="M250.382,80.125h-9.031a1.586,1.586,0,0,1-1.151-.506,1.688,1.688,0,0,1-.507-1.245V19.219a1.692,1.692,0,0,1,.507-1.245,1.587,1.587,0,0,1,1.151-.506h15.2q9.675,0,14.973,4.744t5.3,13.5a19.565,19.565,0,0,1-1.889,8.846,17.807,17.807,0,0,1-6.036,6.634,1.619,1.619,0,0,0-.737.969,3.212,3.212,0,0,0,.276,1.519l9.4,24.05a1.674,1.674,0,0,1-.138,1.659,1.72,1.72,0,0,1-1.52.737H266.5a1.7,1.7,0,0,1-.967-.276,1.563,1.563,0,0,1-.6-.922L257.29,57.55a2.368,2.368,0,0,0-.507-.921,1.5,1.5,0,0,0-.876-.184h-2.58a1.615,1.615,0,0,0-1.059.231,1.24,1.24,0,0,0-.231.874V78.374a1.7,1.7,0,0,1-.506,1.245A1.592,1.592,0,0,1,250.382,80.125Zm3.225-35.108h2.764a7.215,7.215,0,0,0,5.666-2.44,9.164,9.164,0,0,0,2.166-6.313,8.588,8.588,0,0,0-2.12-6.127,7.465,7.465,0,0,0-5.712-2.256h-2.764a1.555,1.555,0,0,0-1.152.413,1.691,1.691,0,0,0-.415,1.245V43.451a1.435,1.435,0,0,0,1.293,1.566,1.394,1.394,0,0,0,.274,0Z" transform="translate(-0.001 -0.002)"/><path class="a" d="M378.917,63.567a15.541,15.541,0,0,1-5.376,12.084q-5.331,4.713-13.529,4.657t-13.1-4.876q-4.9-4.823-4.846-13.024l.007-1.106a1.619,1.619,0,0,1,.561-1.239,1.756,1.756,0,0,1,1.2-.5l8.109.053a1.594,1.594,0,0,1,1.148.515,1.7,1.7,0,0,1,.5,1.246l-.008,1.29a6.754,6.754,0,0,0,1.811,4.943,6.28,6.28,0,0,0,4.687,1.918,6.143,6.143,0,0,0,4.48-1.629,5.9,5.9,0,0,0,1.733-4.411,6.5,6.5,0,0,0-1.082-3.693,16.467,16.467,0,0,0-4.029-3.8l-8.711-6.6q-5.6-4.184-7.828-7.928a15.8,15.8,0,0,1-2.2-8.355,15.975,15.975,0,0,1,5.236-12.224q5.19-4.757,13.208-4.706,7.921.051,12.822,4.783t4.848,12.653L378.549,35a1.743,1.743,0,0,1-.514,1.2,1.626,1.626,0,0,1-1.248.545l-8.2-.053a1.587,1.587,0,0,1-1.148-.514,1.683,1.683,0,0,1-.5-1.248l.007-1.106a7.434,7.434,0,0,0-1.534-4.983,5.278,5.278,0,0,0-4.226-1.871,5.583,5.583,0,0,0-4.2,1.632,5.827,5.827,0,0,0-1.64,4.226A7.035,7.035,0,0,0,356.7,36.8a17.185,17.185,0,0,0,3.936,3.988l8.436,6.32a29.543,29.543,0,0,1,7.413,7.881A16.121,16.121,0,0,1,378.917,63.567Z" transform="translate(-0.001 -0.002)"/><path class="a" d="M419.816,79.958,410.6,79.9a1.587,1.587,0,0,1-1.1-.42,1.645,1.645,0,0,1-.547-.973l-1.247-6.642a1.711,1.711,0,0,0-.5-1.109,1.676,1.676,0,0,0-1.149-.376l-10.043-.065a1.719,1.719,0,0,0-1.108.361,1.6,1.6,0,0,0-.56,1.1L393.015,78.4a2.061,2.061,0,0,1-.514,1.1,1.806,1.806,0,0,1-1.153.269l-8.662-.056a1.741,1.741,0,0,1-1.47-.608,1.769,1.769,0,0,1-.174-1.614l14.019-58.882a2.2,2.2,0,0,1,.652-1.057,1.483,1.483,0,0,1,1.016-.407l10.319.067a1.441,1.441,0,0,1,1.057.42A2.411,2.411,0,0,1,408.7,18.7l12.8,59.147a1.809,1.809,0,0,1-.287,1.52A1.631,1.631,0,0,1,419.816,79.958Zm-13.967-20.27L401.678,35.15c-.062-.243-.123-.37-.182-.37s-.126.125-.187.367l-4.766,24.481a1.356,1.356,0,0,0,.223,1.107,1.213,1.213,0,0,0,.966.375l6.91.045a1.192,1.192,0,0,0,1.015-.362A1.514,1.514,0,0,0,405.849,59.688Z" transform="translate(-0.001 -0.002)"/><path class="a" d="M444.393,70.073a5.392,5.392,0,0,0,4.481-2,8.479,8.479,0,0,0,1.65-5.425l.281-43.4a1.693,1.693,0,0,1,.515-1.242,1.586,1.586,0,0,1,1.155-.5l8.938.057a1.728,1.728,0,0,1,1.739,1.717v.046l-.288,44.6q-.051,7.835-5.1,12.407t-13.44,4.521q-8.109-.052-13.192-4.785A15.979,15.979,0,0,1,426.1,63.688l.288-44.595a1.693,1.693,0,0,1,.515-1.242,1.586,1.586,0,0,1,1.155-.5l8.938.058a1.727,1.727,0,0,1,1.739,1.715v.047l-.28,43.4a8.481,8.481,0,0,0,1.577,5.447A5.288,5.288,0,0,0,444.393,70.073Z" transform="translate(-0.001 -0.002)"/><path class="a" d="M490.831,70.373a5.818,5.818,0,0,0,4.388-1.859,6.5,6.5,0,0,0,1.827-4.643l.01-1.567a1.962,1.962,0,0,1,.378-1.379,1.8,1.8,0,0,1,1.292-.361l8.754.057a1.733,1.733,0,0,1,1.744,1.722v.045q-.055,8.664-5.065,13.745t-13.485,5.025a18.7,18.7,0,0,1-13.15-5.018,16.151,16.151,0,0,1-5.265-12.43l.189-29.117a16.747,16.747,0,0,1,5.334-12.68,18.648,18.648,0,0,1,13.393-4.889q8.106.053,13.19,4.969T509.4,34.832l-.006,1.013a1.742,1.742,0,0,1-.515,1.2,1.625,1.625,0,0,1-1.247.545l-8.754-.057a1.588,1.588,0,0,1-1.148-.513,1.682,1.682,0,0,1-.5-1.248l.009-1.382a6.414,6.414,0,0,0-1.766-4.756,6.07,6.07,0,0,0-4.457-1.825,5.836,5.836,0,0,0-4.434,1.814,6.549,6.549,0,0,0-1.782,4.686l-.191,29.578a6.3,6.3,0,0,0,1.767,4.667A6.063,6.063,0,0,0,490.831,70.373Z" transform="translate(-0.001 -0.002)"/><path class="a" d="M549.24,71.857l-.047,7.279a1.592,1.592,0,0,1-.514,1.15,1.689,1.689,0,0,1-1.247.5l-29.208-.192a1.586,1.586,0,0,1-1.149-.513,1.683,1.683,0,0,1-.5-1.248l.382-59.154a1.693,1.693,0,0,1,.515-1.242,1.586,1.586,0,0,1,1.155-.5l29.209.189a1.727,1.727,0,0,1,1.74,1.716v.046l-.047,7.279a1.585,1.585,0,0,1-.514,1.147,1.687,1.687,0,0,1-1.247.5L531,28.706a1.747,1.747,0,0,0-1.2.5,1.63,1.63,0,0,0-.561,1.241l-.074,11.516a1.909,1.909,0,0,0,1.739,1.762l7.371.048a1.733,1.733,0,0,1,1.739,1.727v.035l-.046,7.187a1.592,1.592,0,0,1-.514,1.15,1.7,1.7,0,0,1-1.248.5l-7.37-.047a1.747,1.747,0,0,0-1.2.5,1.619,1.619,0,0,0-.561,1.239L529,68.227a1.907,1.907,0,0,0,1.74,1.762L547.5,70.1a1.733,1.733,0,0,1,1.739,1.727v.035Z" transform="translate(-0.001 -0.002)"/><path class="a" d="M313.563,76.546a1.423,1.423,0,0,1-.325,1.987c-.028.02-.056.039-.085.057A17.339,17.339,0,0,1,293.39,50.254a1.425,1.425,0,0,1,2,.241c.02.026.04.053.059.081Z" transform="translate(-0.001 -0.002)"/><path class="a" d="M304.953,20.569a1.478,1.478,0,0,1,.382-2.055,1.386,1.386,0,0,1,.157-.094,14.122,14.122,0,0,1,16.139,22.935,1.478,1.478,0,0,1-2.089-.077,1.594,1.594,0,0,1-.116-.142Z" transform="translate(-0.001 -0.002)"/><path class="a" d="M336.624,78.827h0a1.433,1.433,0,0,0,.353-2L299.64,23.172a1.434,1.434,0,0,0-2-.355l0,0h0A11.98,11.98,0,0,0,294.687,39.5l25.251,36.373a11.98,11.98,0,0,0,16.681,2.957Z" transform="translate(-0.001 -0.002)"/></svg>