<svg xmlns="http://www.w3.org/2000/svg" viewBox="0 0 1645.185 536.045"><defs><style>.a{fill:#f98b10;}</style></defs><title>chicken_burger_overlay_y</title><path class="a" d="M326.438,307.176c-59.985-10.009-117.952-17.513-173.164-23.042a2.833,2.833,0,0,0-.806-1.165,8.841,8.841,0,0,0-4.45-2.383c-.891-.129-2.756-.329-5.417-.52-6.475-.952-5.237-2.754-5.461-2.772a14.322,14.322,0,0,1-.118-4.359,14.093,14.093,0,0,0,4.874-3c1.557-1.433,2.059-2.751,3.052-4.622a29.318,29.318,0,0,1,1.937-3.637c2.174-1.5,3.786-.817,5.286-1.386,3.288-1.251,5.319-2.079,7.1-4.273,4.4-5.429,3.817-12.472,4.522-16.343.545-3,4.522-6.41,6.283-11.491,1.823-5.263,3.788-11.348.793-21.224-.469-1.544-3.586-7.858-4.669-10.537,2.848,2.367,3.775,1.48,4.375,1.155,2.789-1.5,1.841-5.639.89-7.864a.786.786,0,0,1-.061-.223.864.864,0,0,1,.743-.97l3.448-.5a18.388,18.388,0,0,1-2.524-4.418c-.43-1.684,2.641-2.6,1.819-5a3.344,3.344,0,0,0-2.025-2.108c-.279-1.851-1.9-3.033-2.813-3.951a4.445,4.445,0,0,0-3.171-1.333,4.681,4.681,0,0,0-.974.1,3.9,3.9,0,0,0-2.2,1.294c-.949-.4-4.687-1.3-6.172-.5-1.175.635-1.293,2.684-1.293,2.684s-4.251-1.07-4.051,2.167c.089,1.413,2.677,3.736,2.731,3.984-8.807,4.792-9.869,14.727-10.807,18.247-.837,3.155-2.171,8.6-4.637,9.067-2.77.519-12.708,2.967-13.656,3.031-.081,0-4.417.747-6.84-.259s-5.289-1.272-5.9-1.992c.017-.338,2.819-15.159-3.171-23.475-2.006-2.787-7.4-5.371-10.481-2.859-.889.723-2.284,3.779-2.554,5.89a14.3,14.3,0,0,0-6.077,1.82c-3.613,2.688-1.667,4.524-3.7,7.188-2.113,2.773-5.931,2.393-6.694,12.908-.589,8.085,4.061,15.578,4.052,15.591-4.454,5.88,4.592,13.977,8.718,16.094,1.4.72,7.03,2.6,7.6,3.338.071.476-5.838,3.94-3.511,8.446a18.162,18.162,0,0,0,4.132,4.679,22.237,22.237,0,0,1,1.9,1.823,8.641,8.641,0,0,0,.456,1.067,13.7,13.7,0,0,0,12.586,5.96c.117.18,1.547,3.555,4.1,4.98,1.43.8,6.614.993,6.739,1,.23.667,2.553,3.291-.486,6.713-.264.3-2.837.69-4.937.966-34.15-3.021-67.147-5.3-98.8-6.955a3.512,3.512,0,0,1,.188-3.975c.088,0,3.68-.137,4.671-.691a8.2,8.2,0,0,0,2.838-3.451,9.5,9.5,0,0,0,8.724-4.13,6.166,6.166,0,0,0,.315-.739,15.423,15.423,0,0,1,1.318-1.264,12.627,12.627,0,0,0,2.862-3.242c1.613-3.122-2.483-5.524-2.432-5.853.393-.514,4.3-1.814,5.268-2.313,2.859-1.467,9.128-7.079,6.042-11.153-.006-.009,3.215-5.2,2.808-10.8-.528-7.287-3.175-7.024-4.638-8.945-1.409-1.846-.062-3.121-2.564-4.982a9.929,9.929,0,0,0-4.213-1.261,8.523,8.523,0,0,0-1.77-4.082c-2.136-1.741-5.871.05-7.263,1.981-4.15,5.763-2.209,16.034-2.2,16.268-.422.5-2.41.683-4.09,1.38s-4.683.183-4.74.179c-.657-.044-7.544-1.741-9.463-2.1-1.708-.32-2.633-4.1-3.214-6.283-.65-2.438-1.384-9.323-7.488-12.646.037-.172,1.831-1.781,1.892-2.761.141-2.242-2.807-1.5-2.807-1.5s-.08-1.419-.9-1.859c-1.029-.556-3.618.073-4.276.346a2.71,2.71,0,0,0-1.522-.9,3.126,3.126,0,0,0-.674-.073,3.075,3.075,0,0,0-2.2.925c-.632.636-1.757,1.454-1.95,2.737a2.322,2.322,0,0,0-1.4,1.461c-.57,1.662,1.56,2.3,1.261,3.463a12.789,12.789,0,0,1-1.75,3.061l2.39.346a.6.6,0,0,1,.514.674.588.588,0,0,1-.041.153c-.658,1.542-1.316,4.409.616,5.449.42.225,1.06.841,3.032-.8-.751,1.856-2.91,6.231-3.235,7.3-2.076,6.844-.715,11.061.549,14.709,1.221,3.52,3.976,5.885,4.354,7.963.489,2.682.081,7.563,3.134,11.326,1.235,1.52,2.643,2.093,4.924,2.961,1.04.393,2.156-.081,3.663.96a20.479,20.479,0,0,1,1.341,2.521,10.022,10.022,0,0,0,2.117,3.2,9.752,9.752,0,0,0,3.377,2.08,9.939,9.939,0,0,1-.082,3.021c-.093.008.172.463-.573.968-239.293-11.907-400.073,11.219-400.073,11.219v422.2H1260.777C665.574,348.327,326.438,307.176,326.438,307.176Z" transform="translate(384.407 -171.21)"/></svg>