<svg xmlns="http://www.w3.org/2000/svg" viewBox="0 0 1562.482 613.696"><defs><style>.a{fill:#ea1745;}</style></defs><title>fire-background</title><path class="a" d="M869.133,890.509c.585,1.236,1.139,2.485,1.649,3.751,5.985,14.867-.674,26.537-8.954,38.727-3.628,5.346-8.583,9.46-10.787,15.587-1.365,3.8-4.767,20.069-.728,23.062a32.853,32.853,0,0,1-12.293-32.365c2.013-9.6,8.379-18.15,8.764-27.949.383-9.761-5.2-18.594-8.675-27.723-7.29-19.167,4.836-36.677,20.38-47.208C851.082,857.05,860.624,872.512,869.133,890.509Z" transform="translate(415.58 -740.823)"/><path class="a" d="M-117.171,925.47a70.13,70.13,0,0,0,7.052,21.138c5.431,10.723,11.559,22.522,8.561,34.162A50.53,50.53,0,0,0-89.42,941.389c-.886-6.923-3.226-13.653-3.431-20.627-.26-8.7,2.771-17.244,6.37-25.04,3.368-7.3,3.9-12.229,2.739-20.457-1.424-10.132-6.227-20.024-14.312-26.3,5.119,7.695,3.916,18.128.085,26.539-5.3,11.636-17.462,21.832-19.309,34.8A51.978,51.978,0,0,0-117.171,925.47Z" transform="translate(415.58 -740.823)"/><path class="a" d="M1114.274,1034.005c-9.557-12.65-36.277-57.821-18.069-73.418-9.289,7.956-19.323,17.384-19.749,29.61-.237,6.693,2.539,13.078,3.935,19.628,3.146,14.743-1.664,31.649-13.982,40.337s-31.909,6.367-39.859-6.437c-6.122-9.859-4.43-22.766-.076-33.523s11.089-20.463,14.969-31.4c15.457-43.558-16.286-65.071-42.908-91.547-25.252-25.115-35.377-69.574-11.606-96.1-23.208,20.021-35.1,53.447-26.571,82.886,5.1,17.585,16.562,32.478,25.857,48.252s16.718,34.257,12.517,52.076-24.565,32.4-41.133,24.615c-11.432-5.374-16.9-19.18-16.254-31.794s6.2-24.387,11.64-35.782c-1.5,3.152-17.755,9.662-21.593,14.129-6.782,7.893-10.061,17.7-12.388,27.632-6.169,26.339,1.079,43.094,15.375,65.454,8.528,13.338,16.98,27.662,17.617,43.483,1.361,33.9-31.943,37.542-50.958,14.766-8.778-10.513-9.168-25.7-6.79-39.191s7.083-26.709,6.947-40.4-6.764-28.689-19.757-33.023c8.863,5.181,10.709,17.874,6.86,27.39s-11.872,16.6-19.551,23.419-15.57,14.123-18.993,23.8c-5.621,15.877,2.23,33.153,10.795,47.655,5.929,10.041,12.557,21.016,10.648,32.522-5.14,30.957-44.683,18.981-52.647-3.311-4.328-12.116-2.3-25.6,1.5-37.891,3.136-10.125,7.479-20.038,8.3-30.605.81-10.378-2.449-21.183-11.4-26.866,15.489,46.889-55.458,52.667-29.04.928,8.742-17.122,18.491-36.064,13.538-54.641-3.041-11.4-11.2-20.58-17.936-30.26-12.691-18.219-25.424-40.742-18.176-63.218,4.846-15.022,15.976-27.414,20.707-42.472,6.993-22.252-2.509-48.613-22.089-61.288a61.207,61.207,0,0,1,7.637,46.171c-2.281,9.591-7.222,18.912-15.34,24.506s-19.721,6.659-27.745.93c-9.878-7.052-11.366-21.4-8.506-33.2s9.047-22.639,11.333-34.559A55.743,55.743,0,0,0,712.4,740.823c19.426,15.97-3.876,52.884-12.286,67.546-13.152,22.926-27.134,44.267-24.694,72.018a83.7,83.7,0,0,0,36.6,61.51c13.8,9.141,30.163,14.006,43.531,23.77,13.557,9.9,23.671,25.5,23.909,42.283s-11.094,33.926-27.5,37.51-35.213-9.773-34.745-26.555c.254-9.149,5.517-17.533,6.189-26.662s-7.615-20.084-15.9-16.194c6.227,6.843,3.321,16.714-.123,24.067-6.342,13.542-11.481,28.828-8.2,43.937,2.275,10.5,7.956,19.971,10.838,30.327s2.2,23-6.088,29.843c-6.419,5.307-16.131,5.564-23.516,1.714-26.267-13.7-14.411-49.519-7.889-71.04,4.307-14.207,8.454-31.371-2.434-43.773-3.423-3.9-7.8-6.889-11.039-10.937a26.553,26.553,0,0,1-2.948-27.807c-10.928,9.6-13.646,27.272-6.106,39.709,4.62,7.624,12.868,14.744,11.035,23.465-2.2,10.475-18.584,11.767-25.655,3.733s-6.66-20.2-4-30.563,7.2-20.493,7.044-31.194-7.169-22.474-17.858-23.016c11.562,9.464,7.893,27.949,1.488,41.452-11.043,23.28-16.379,42.592,1.145,64.375,7.437,9.248,16.258,18.069,19.367,29.52,3.931,14.475-3.311,31.2-16.555,38.24a23.831,23.831,0,0,1-10,2.964c-8.057.365-15.72-4.832-19.727-11.832-10.156-17.755,7.679-32.091,6.572-49.713-.434-6.859-4.65-12.787-8.014-18.781s-6-13.338-3.15-19.592c-4.985,4.53-6.883,11.715-6.456,18.44.248,3.884,1.18,7.74.894,11.62s-2.162,8-5.776,9.438c-4.366,1.734-9.456-1.275-11.674-5.415-9.006-16.817,1.964-30.941,9.69-45.48,9.472-17.833,9.765-33.779-1.02-51.63-6.713-11.108-15.014-22.33-15.127-35.309-.087-10.043,4.818-19.37,9.6-28.207-14.667,4.1-24.955,20.073-22.616,35.12,1.151,7.4,4.882,14.125,6.915,21.33,9.547,33.849-27.17,14.9-29.479-8.607-1.474-15,3.6-29.851,4.229-44.909s-5.475-32.611-19.932-36.869c10.736,9.5,7.066,27.4-.9,39.317-16.627,24.891-40.923,48.97-18.74,79.2,4.663,6.354,10.8,11.537,15.276,18.023,18.027,26.109-17.3,57.145-26.136,28.011-1.543-5.094-1.462-10.515-1.434-15.835.045-8.3-.115-16.845-3.353-24.486s-10.285-14.242-18.579-14.476c8.816,6.11,12.376,18.761,8.04,28.57-2.114,4.787-5.78,8.736-8.079,13.437-6.625,13.544-.551,29.99,8.268,42.219,4.231,5.866,9.253,11.664,10.323,18.817,1.232,8.23-3.477,16.71-10.565,21.072-5.826,3.584-13.552,4.56-19.537,1.247-.444-.246-.86-.5-1.253-.771-8.169-5.582-5.489-15.861-4.6-24.355.813-7.762,3.725-15.2,4.378-22.98s-1.686-16.652-8.52-20.419c2.762,5.112,1.5,11.614-1.529,16.574s-7.571,8.763-11.815,12.733a56.1,56.1,0,0,0-8.513,9.547,34.8,34.8,0,0,0-5.24,25.432c1.008,5.429,3.309,10.549,4.379,15.966s.685,11.581-3.012,15.681c-4.628,5.132-13.3,5.106-18.893,1.05s-8.345-11.158-8.691-18.059c-1.212-24.06,12.294-40.191,23.048-60.225,6.788-12.646,11.683-27.307,8.317-41.257-3-12.449-12.051-22.385-18.518-33.438s-10.124-25.892-2.4-36.106a53.73,53.73,0,0,0-15.826,40.129c.673,15.488,8.079,31.03,3.94,45.971-1.737,6.264-6.334,12.471-12.8,13.128-18.019,1.829-6.946-30.552-6.74-38.34.3-11.266-4-18.878-10.011-27.87,5.076,7.594.686,17.892-4.843,25.167s-12.52,14.572-12.708,23.708c-.153,7.431,4.3,14.037,7.9,20.541,5.137,9.282,8.865,19.881,7.375,30.385s-9.4,20.606-19.938,21.862c-39.087,4.664-15.748-67.263-9.634-82.609,11.963-30.034,28-61.859,15.149-94.415-4.777-12.1-12.81-22.614-18.553-34.283s-9.083-25.664-3.86-37.576a44.238,44.238,0,0,0-13.1,38.96c2.989,17.568,18.868,38.121,9.853,56.391-4.188,8.486-16.4,13.161-23.594,7.015-6.878-5.876-5.332-16.682-3.461-25.533s2.586-20-4.973-24.966c3.461,6.044,2.487,13.719-.1,20.187s-6.612,12.277-9.287,18.708c-15.276,36.719,24.123,71.793,21.312,109.929-.452,6.129-1.807,12.406-5.433,17.367s-9.927,8.321-15.946,7.069c-9.434-1.962-13.521-13.691-12.11-23.224s6.424-18.215,8.093-27.708-1.672-21.287-10.916-24.011c6.855,8.5,3.61,21.306-2.111,30.6-9.052,14.719-20.658,29.13-18.541,47.458,1.6,13.91,15.758,21.252,17,34.2.621,6.471-3.491,12.5-8.327,16.841-3.338,3-7.363,5.6-11.844,5.822-6.048.3-11.648-3.987-14.379-9.391s-3.047-11.714-2.569-17.75c1.756-22.135,13.3-44.586,5.987-65.553-3.123-8.946-9.389-16.395-13.983-24.682s-7.471-18.61-3.3-27.12c-16.694,5.126-17.9,36.286-15.634,49.934,1.261,7.609,2.832,15.377,1.47,22.968s-6.469,15.105-14.016,16.693c-8.738,1.839-17.484-5.144-20.38-13.59s-1.256-17.757,1.3-26.313c7.6-25.458,19.407-47.217,4.336-73.254-5.036-8.7-12.433-15.887-17.178-24.75s-6.227-20.778.439-28.3c-32.881,24.212,4.21,49.148-2.407,77.62-5.9,25.4-34,17.886-40.569-2.573-3.551-11.063-1.632-23.119,1.4-34.337s7.155-22.266,8.008-33.853a62.108,62.108,0,0,0-25.486-54.139,59.891,59.891,0,0,1,4.765,41.609c-3.487,13.824-11.777,25.845-18.385,38.48q-.9,1.723-1.771,3.535c-6.965,14.492-12.17,32.875-9.841,48.575,3.366,22.7,16.222,42.934,17.077,66.356.564,15.514-4.946,32.313-18.026,40.68-32.514,20.8-51.525-22.387-48.206-47.6,4.34-32.988,22.8-62.687,28.4-95.484a126.028,126.028,0,0,0-6.306-65.38C24.887,866.6,18.585,855.337,16.05,842.929s-.42-26.868,9.371-34.9C5.612,815.329-7.914,836.883-5.871,857.9c1.7,17.452,12.818,34.459,8.141,51.358-3.865,13.967-20.313,23.53-33.95,18.632s-19.892-24.4-10.632-35.543c-14.933,9.819-13.981,32.564-6.082,48.6s20.872,29.655,25.668,46.871a54.522,54.522,0,0,1-12.542,50.967c-7.845,8.349-21.738,13.832-30.4,6.33-8.242-7.141-5.78-20.283-2.618-30.721-23.389,12.664-18.272,41.875-8.819,62.608,5.471,12,13.86,23.075,15.53,36.158,2.177,17.021-9.177,34.789-25.537,39.97-10.5,3.325-24.516-.037-27.721-10.579-1.476-4.85-.331-10.1,1.325-14.9,3.459-10.007,9.218-20.243,6.669-30.52-2-8.071-8.667-13.957-13.977-20.356s-9.587-15.339-5.911-22.8a43.1,43.1,0,0,0-8.381,32.659c1.091,6.927,3.9,13.738,3.12,20.709a20.026,20.026,0,0,1-12.1,16.115,18.585,18.585,0,0,1-19.6-3.9,25.228,25.228,0,0,1-5.924-10.922c-5.85-20.082,4.937-31.057,15.938-46.478,8.75-12.263,17.829-25.44,18.564-40.486.994-20.286-13.272-37.917-18.416-57.567A66.7,66.7,0,0,1-140.5,905.568c-1.948,2.341-10.016,4.021-12.972,5.741A67.722,67.722,0,0,0-167.2,921.9c-24.8,24.744-16.359,53.917-11.851,85.161,1.1,7.669,1.724,15.726-1.057,22.956s-9.873,13.338-17.585,12.6a18.478,18.478,0,0,1-6.9-2.253c-14.214-7.607-19.215-26.19-16.758-42.125s10.632-30.3,16.857-45.171c4.888-11.676,8.827-24.7,7.252-37.493-1.647-13.386-9.869-20.7-16.2-31.911A41.352,41.352,0,0,1-217,851.862c-12.415,12.134-18.324,28.753-13.518,45.856,2.086,7.431,6.006,14.324,7.336,21.927s-.865,16.724-7.811,20.09c-5.917,2.871-13.938-.081-16.58-6.1-2.809-6.4.19-13.653,1.871-20.433,1.477-5.947,1.887-12.323-.061-18.13s-6.559-10.938-12.507-12.394c5.861,3.825,5.532,12.535,3.39,19.2-4.292,13.364-15.67,23.79-19.372,37.021-4.114,14.707,2.44,31.887,9.678,44.485,9.027,15.71,21.354,29.5,28.836,46,7.623,16.813,10.67,43.277.371,59.844-5.767,9.276-18.16,15.04-28.088,10.484-10.875-4.995-14-19.33-11.963-31.123s7.74-22.786,9.1-34.676-3.663-26.1-15.233-29.154c7.115,8.845,3.045,22.322-3.947,31.264s-16.588,15.984-21.654,26.142c-5.286,10.6-4.621,22.623-2.173,33.882,2.045,9.4,9.186,20.094,6.875,29.647-1.672,6.907-7.621,13.26-14.726,13.105-5.255-.115-9.962-3.745-12.62-8.28s-3.579-9.868-4.074-15.1a112.085,112.085,0,0,1,14.572-66.14c13.806-23.877,27.213-48.458,23.4-77.25-2.4-18.124-9.3-29.8-16.113-46.45-3.993-9.754-4.1-22.72,4.356-29-33.055-2.779-5.229,58.513-33.416,64.618-8.322,1.8-16.95-3.884-20.725-11.517s-3.569-16.651-1.976-25.016c2.69-14.116,9.034-27.412,10.922-41.656s-2.172-30.9-14.851-37.659c6.8,7.847,6.754,19.723,3.358,29.532s-9.6,18.36-14.321,27.606a100.166,100.166,0,0,0-4.876,78.766c12.312,33.862,38.877,60.393,37.769,98.743a36.558,36.558,0,0,1-1.687,11.011,23.057,23.057,0,0,1-8.143,10.962c-2.93,2.13-6.56,3.574-10.145,3.052-5.038-.734-8.781-5.109-11.011-9.688-5.652-11.6-1.526-21.951-.646-34.005,1.051-14.391-1.07-30.83-12.616-39.486,8.655,12.9,6.25,30.378.145,44.658s-15.479,27.08-20.572,41.751c-6.411,18.472-6.05,227.413-3.079,246.269H1146.659C1148.49,1306.375,1140.152,1068.249,1114.274,1034.005Z" transform="translate(415.58 -740.823)"/></svg>