<svg xmlns="http://www.w3.org/2000/svg" viewBox="0 0 566.926 566.929"><defs><style></style></defs><title>burger_and_sauce_icon_wh</title><path class="a" d="M293.145,376.193a5.152,5.152,0,0,1-1.179,7.191c-.1.072-.2.139-.3.2a62.725,62.725,0,0,1-71.494-102.5,5.154,5.154,0,0,1,7.236.868c.075.1.147.194.215.3Z" transform="translate(0 0)"/><path class="a" d="M262,173.7a5.349,5.349,0,0,1,1.383-7.436,5.293,5.293,0,0,1,.566-.339,51.088,51.088,0,0,1,58.384,82.967,5.348,5.348,0,0,1-7.559-.281,5.5,5.5,0,0,1-.418-.51Z" transform="translate(0 0)"/><path class="a" d="M376.576,384.444h0a5.182,5.182,0,0,0,1.278-7.217L242.787,183.113a5.184,5.184,0,0,0-7.218-1.278h0a43.336,43.336,0,0,0-10.684,60.346L316.226,373.76a43.334,43.334,0,0,0,60.344,10.688Z" transform="translate(0 0)"/><path class="a" d="M104.562,203.957a13.036,13.036,0,0,1,7.954,7.389,15.47,15.47,0,0,1,.193,11.673l-4.268,12.212a1.193,1.193,0,0,1-.649.694,1.266,1.266,0,0,1-1.014.051L64.626,221.24a1.3,1.3,0,0,1-.761-.671,1.222,1.222,0,0,1-.074-.948l4.316-12.347a14.825,14.825,0,0,1,7.078-8.542,12.462,12.462,0,0,1,10.417-.816,11.931,11.931,0,0,1,4.371,2.672,12.578,12.578,0,0,1,2.919,4.3.975.975,0,0,0,.511.546.772.772,0,0,0,.671-.132,12.406,12.406,0,0,1,5.122-1.894A11.472,11.472,0,0,1,104.562,203.957Zm-19.091,11.82.6-1.7a4.454,4.454,0,0,0-.221-3.8,5.571,5.571,0,0,0-3.186-2.476,4.959,4.959,0,0,0-3.95.02A5.256,5.256,0,0,0,76.238,211l-.481,1.378a1.243,1.243,0,0,0-.049.87,1.023,1.023,0,0,0,.665.527l7.682,2.684a.986.986,0,0,0,1.419-.684Zm18.057,6.317.552-1.577a5.146,5.146,0,0,0-.16-4.184,5.409,5.409,0,0,0-3.194-2.665,5.292,5.292,0,0,0-4.1.038A5.2,5.2,0,0,0,94,216.911l-.574,1.644a.984.984,0,0,0,.422,1.325,1,1,0,0,0,.262.091l8.076,2.823a1.006,1.006,0,0,0,.848,0,1.23,1.23,0,0,0,.5-.7Z" transform="translate(0 0)"/><path class="a" d="M156.543,142.188a3.131,3.131,0,0,0,1.178-2.746,6.257,6.257,0,0,0-1.792-3.346L134.4,112.14a1.271,1.271,0,0,1-.344-.953,1.2,1.2,0,0,1,.392-.864l6.207-5.581a1.308,1.308,0,0,1,1.848.077l.021.023,22.412,24.939q4.089,4.551,3.523,9.691t-5.643,9.7q-4.86,4.368-10.183,4.38a12.058,12.058,0,0,1-9.27-4.384L120.949,124.23a1.282,1.282,0,0,1-.344-.954,1.209,1.209,0,0,1,.392-.867l6.211-5.578a1.3,1.3,0,0,1,1.837.069l.028.031L150.6,140.884a6.256,6.256,0,0,0,3.137,2.139A3.062,3.062,0,0,0,156.543,142.188Z" transform="translate(0 0)"/><path class="a" d="M257.068,103.585l-8.735,2.062a1.282,1.282,0,0,1-.758-.035,1.158,1.158,0,0,1-.584-.5L238.247,91.38a2.351,2.351,0,0,0-.684-.767,1.041,1.041,0,0,0-.809-.1l-.675.161a1.019,1.019,0,0,0-.716.456,1.493,1.493,0,0,0-.013,1l3.407,14.422a1.288,1.288,0,0,1-.157,1,1.2,1.2,0,0,1-.758.571l-8.192,1.933a1.183,1.183,0,0,1-.934-.17,1.264,1.264,0,0,1-.588-.825L217.862,65.6a1.274,1.274,0,0,1,.157-1,1.193,1.193,0,0,1,.758-.572l11.779-2.781q7.783-1.841,12.6.7t6.448,9.448a16,16,0,0,1,.3,6.718,13.781,13.781,0,0,1-3.012,6,1.077,1.077,0,0,0-.334.863,2.568,2.568,0,0,0,.578,1.079l10.719,15.414a1.4,1.4,0,0,1,.2,1.31A1.3,1.3,0,0,1,257.068,103.585Zm-22.951-21.81,1.288-.3a4.521,4.521,0,0,0,3.195-2.5,6.77,6.77,0,0,0,.34-4.621,6.021,6.021,0,0,0-2.238-3.722,4.749,4.749,0,0,0-4-.594l-1.285.3a1.158,1.158,0,0,0-.809.51,1.386,1.386,0,0,0-.054.98l2.125,9a1.377,1.377,0,0,0,.5.883A1.256,1.256,0,0,0,234.117,81.775Z" transform="translate(0 0)"/><path class="a" d="M334.334,100.432a3.983,3.983,0,0,0,3.022-.356,3.708,3.708,0,0,0,1.923-2.39l.835-3.018a1.084,1.084,0,0,0-.627-1.4,1.059,1.059,0,0,0-.2-.055l-1.609-.443a1.214,1.214,0,0,1-.738-.6,1.2,1.2,0,0,1-.135-.94l1.557-5.633a1.276,1.276,0,0,1,.617-.8,1.206,1.206,0,0,1,.941-.138l11.8,3.263a1.213,1.213,0,0,1,.736.6,1.286,1.286,0,0,1,.118,1.009l-2.967,10.725a12.769,12.769,0,0,1-6.577,8.394,14.97,14.97,0,0,1-11.2.839,15.433,15.433,0,0,1-9.348-6.519,12.624,12.624,0,0,1-1.436-10.61l5.617-20.315a12.683,12.683,0,0,1,6.721-8.388,15.481,15.481,0,0,1,11.413-.815,15.02,15.02,0,0,1,9.222,6.448,12.871,12.871,0,0,1,1.272,10.671,3.67,3.67,0,0,1-.774,1.625,1.084,1.084,0,0,1-1.111.234L345.5,79.633A1.153,1.153,0,0,1,344.77,79a1.377,1.377,0,0,1-.109-1.041,6.414,6.414,0,0,0,.057-3.991,3.452,3.452,0,0,0-2.488-2.094,4.005,4.005,0,0,0-3.048.312,3.744,3.744,0,0,0-1.9,2.434L331.5,95.539a3.743,3.743,0,0,0,.379,3.063A4,4,0,0,0,334.334,100.432Z" transform="translate(0 0)"/><path class="a" d="M417.374,160.884,400.46,144.853a1.2,1.2,0,0,1-.366-.876,1.273,1.273,0,0,1,.366-.944l30.723-32.415a1.281,1.281,0,0,1,.924-.417,1.193,1.193,0,0,1,.893.321l16.914,16.03a1.267,1.267,0,0,1,.417.922,1.28,1.28,0,0,1-.366.947l-4.691,4.946a1.2,1.2,0,0,1-.877.369,1.271,1.271,0,0,1-.944-.369l-8.937-8.468a1.306,1.306,0,0,0-.919-.344,1.224,1.224,0,0,0-.947.392l-4.595,4.849a1.238,1.238,0,0,0-.318.941,1.262,1.262,0,0,0,.369.928l3.735,3.539a1.312,1.312,0,0,1,.065,1.854l-.014.015-4.643,4.9a1.192,1.192,0,0,1-.874.369,1.287,1.287,0,0,1-.947-.369l-3.735-3.542a1.324,1.324,0,0,0-.918-.344,1.226,1.226,0,0,0-.951.4l-4.977,5.25a1.266,1.266,0,0,0-.366.945,1.2,1.2,0,0,0,.366.876l8.988,8.517a1.278,1.278,0,0,1,.418.924,1.194,1.194,0,0,1-.321.893l-4.737,5a1.2,1.2,0,0,1-.877.369A1.282,1.282,0,0,1,417.374,160.884Z" transform="translate(0 0)"/><path class="a" d="M460.273,241.05l-2.842-8.51a1.3,1.3,0,0,1-.035-.761,1.175,1.175,0,0,1,.45-.626l12.883-9.952a2.319,2.319,0,0,0,.707-.748,1.041,1.041,0,0,0,.019-.812l-.218-.662a1.03,1.03,0,0,0-.521-.671,1.5,1.5,0,0,0-1,.08l-14.053,4.695a1.285,1.285,0,0,1-1.011-.067,1.187,1.187,0,0,1-.639-.7l-2.669-7.983a1.192,1.192,0,0,1,.087-.944,1.273,1.273,0,0,1,.771-.662l42.358-14.159a1.287,1.287,0,0,1,1.012.068,1.189,1.189,0,0,1,.639.7l3.834,11.48q2.538,7.587.44,12.614t-8.828,7.277a15.979,15.979,0,0,1-6.666.906,13.764,13.764,0,0,1-6.246-2.46,1.079,1.079,0,0,0-.893-.251,2.578,2.578,0,0,0-1.021.671l-14.38,12.065a1.379,1.379,0,0,1-1.285.318A1.3,1.3,0,0,1,460.273,241.05Zm19.65-24.826.418,1.255a4.522,4.522,0,0,0,2.784,2.955,6.749,6.749,0,0,0,4.63-.081,6.025,6.025,0,0,0,3.507-2.562,4.745,4.745,0,0,0,.228-4.037l-.417-1.255a1.154,1.154,0,0,0-.585-.758,1.367,1.367,0,0,0-.979.035l-8.773,2.929a1.351,1.351,0,0,0-.835.575,1.235,1.235,0,0,0,.025.944Z" transform="translate(0 0)"/><path class="a" d="M105.4,405.691a4,4,0,0,0,1.564-1.917,11.761,11.761,0,0,0,.527-3.731l.321-8.064a21.45,21.45,0,0,1,1.66-8.121,12.219,12.219,0,0,1,4.435-5.2,12.478,12.478,0,0,1,10.247-1.927A14.629,14.629,0,0,1,133,383.256a14.155,14.155,0,0,1,2.553,10.5,12.791,12.791,0,0,1-5.954,8.635l-1.044.694a1.311,1.311,0,0,1-.963.183,1.232,1.232,0,0,1-.867-.553l-4.2-6.313a1.207,1.207,0,0,1-.164-.938,1.269,1.269,0,0,1,.572-.838l.924-.616a4.317,4.317,0,0,0,1.943-2.544,3.567,3.567,0,0,0-.584-2.951,2.8,2.8,0,0,0-2.12-1.307,3.723,3.723,0,0,0-2.511.623,4.419,4.419,0,0,0-1.593,1.94,9.636,9.636,0,0,0-.69,3.173q-.039.693-.286,5.032a58.8,58.8,0,0,1-.674,6.714,17.848,17.848,0,0,1-1.879,6.1,11.109,11.109,0,0,1-3.593,3.892,12.545,12.545,0,0,1-10.334,1.982,15,15,0,0,1-8.934-6.715,14.535,14.535,0,0,1-2.64-10.694,12.962,12.962,0,0,1,6.06-8.789l1.044-.693a1.225,1.225,0,0,1,1.015-.171,1.319,1.319,0,0,1,.818.54l4.12,6.2a1.2,1.2,0,0,1,.161.937,1.272,1.272,0,0,1-.568.838l-1.044.694a4.051,4.051,0,0,0-1.4,5.556,3.781,3.781,0,0,0,.217.327,3.565,3.565,0,0,0,4.929,1.066l.087-.058Z" transform="translate(0 0)"/><path class="a" d="M188.231,491.644l-7.588-4.1a1.075,1.075,0,0,1-.555-.655,1.8,1.8,0,0,1-.016-.918l1.371-4a1.218,1.218,0,0,0,.029-.935,1.4,1.4,0,0,0-.665-.674l-5.69-3.077a1.264,1.264,0,0,0-.9-.167,1.3,1.3,0,0,0-.736.553l-2.655,3.307a1.247,1.247,0,0,1-.752.585,1.531,1.531,0,0,1-.941-.235l-7.161-3.866a1.205,1.205,0,0,1-.687-.925,1.432,1.432,0,0,1,.475-1.169l30.125-34.245a1.5,1.5,0,0,1,.825-.5,1.311,1.311,0,0,1,.867.154l8.446,4.563a1.077,1.077,0,0,1,.555.656,1.838,1.838,0,0,1-.016.979l-12.436,43.793a1.458,1.458,0,0,1-.745.941A1.192,1.192,0,0,1,188.231,491.644Zm-3.275-19.4,5.684-16.223c.022-.145.016-.228-.026-.251s-.116.016-.221.119l-10.578,13.579a1.271,1.271,0,0,0-.293.909.954.954,0,0,0,.556.655l3.3,1.785a1.143,1.143,0,0,0,.944.155,1.171,1.171,0,0,0,.634-.727Z" transform="translate(0 0)"/><path class="a" d="M284.171,503.012a3.124,3.124,0,0,0,2.691-1.294,6.289,6.289,0,0,0,.845-3.7l-.521-32.2a1.277,1.277,0,0,1,.366-.944,1.2,1.2,0,0,1,.864-.4l8.346-.134a1.311,1.311,0,0,1,1.343,1.279v.021l.542,33.526q.1,6.117-3.7,9.624t-10.62,3.616q-6.537.1-10.559-3.379a12.056,12.056,0,0,1-4.117-9.393l-.545-33.525a1.288,1.288,0,0,1,.369-.944,1.191,1.191,0,0,1,.864-.4l8.346-.138a1.3,1.3,0,0,1,.944.369,1.277,1.277,0,0,1,.4.931l.52,32.2a6.261,6.261,0,0,0,.964,3.674A3.058,3.058,0,0,0,284.171,503.012Z" transform="translate(0 0)"/><path class="a" d="M389.308,475.868a3.393,3.393,0,0,0,1.727-2.209,4.014,4.014,0,0,0-.449-3.006l-.732-1.342a1.294,1.294,0,0,1-.116-1.009,1.207,1.207,0,0,1,.581-.751l7.206-3.927a1.3,1.3,0,0,1,1.775.48l.025.046q3.329,6.108,1.837,11.436t-7.414,8.561a14.9,14.9,0,0,1-11.009,1.682,12.645,12.645,0,0,1-8.31-6.6l-10.122-18.564A12.877,12.877,0,0,1,363.163,450a14.984,14.984,0,0,1,7.47-8.391,14.545,14.545,0,0,1,10.96-1.7,12.975,12.975,0,0,1,8.208,6.773l.5.918a1.327,1.327,0,0,1,.1.977,1.216,1.216,0,0,1-.626.815l-7.206,3.931a1.2,1.2,0,0,1-.947.08,1.278,1.278,0,0,1-.784-.642l-.633-1.159a3.966,3.966,0,0,0-2.3-2.036,3.513,3.513,0,0,0-2.835.318,3.467,3.467,0,0,0-1.789,2.241,4,4,0,0,0,.45,3.006l10.42,19.116a3.8,3.8,0,0,0,2.3,1.956A3.625,3.625,0,0,0,389.308,475.868Z" transform="translate(0 0)"/><path class="a" d="M480.89,399.068l-12.906,19.4a1.193,1.193,0,0,1-.8.514,1.284,1.284,0,0,1-1-.2L429,394.049a1.277,1.277,0,0,1-.568-.839,1.2,1.2,0,0,1,.161-.937l12.909-19.4a1.305,1.305,0,0,1,1.806-.382l.024.016,5.678,3.773a1.2,1.2,0,0,1,.51.8,1.276,1.276,0,0,1-.2,1L442.5,388.33a1.327,1.327,0,0,0-.184.967,1.23,1.23,0,0,0,.553.867l5.559,3.7a1.448,1.448,0,0,0,1.833-.369l2.852-4.287a1.268,1.268,0,0,1,.838-.569,1.291,1.291,0,0,1,.992.2l5.62,3.738a1.2,1.2,0,0,1,.51.8,1.276,1.276,0,0,1-.2,1l-2.851,4.287a1.313,1.313,0,0,0-.18.964,1.226,1.226,0,0,0,.549.867l6.024,4.007a1.274,1.274,0,0,0,.992.2,1.2,1.2,0,0,0,.8-.514l6.856-10.308a1.29,1.29,0,0,1,.838-.572,1.207,1.207,0,0,1,.938.164l5.732,3.815a1.191,1.191,0,0,1,.514.8A1.277,1.277,0,0,1,480.89,399.068Z" transform="translate(0 0)"/><path class="a" d="M71.559,312.452a1.975,1.975,0,0,1-1.971-2.341,10.585,10.585,0,0,1,20.645,0,1.973,1.973,0,0,1-1.97,2.341Z" transform="translate(0 0)"/><path class="a" d="M495.089,301.868a2,2,0,0,1,2,2.379,10.586,10.586,0,0,1-20.628,0,2,2,0,0,1,2-2.379Z" transform="translate(0 0)"/><path class="a" d="M283.465,566.929C127.165,566.929,0,439.768,0,283.464S127.163,0,283.465,0,566.926,127.161,566.926,283.468,439.766,566.929,283.465,566.929Zm0-557.617C132.3,9.312,9.313,132.3,9.313,283.468S132.3,557.616,283.465,557.616,557.616,434.633,557.616,283.468,434.632,9.312,283.465,9.312Z" transform="translate(0 0)"/></svg>