<svg xmlns="http://www.w3.org/2000/svg" viewBox="0 0 1920 506.974"><defs><style>.a{fill:#4cad40;}</style></defs><title>veggi-bg-right_g_flip</title><path class="a" d="M1920,506.978H0V99.743c2.021.284,4.159.579,6.427.885C45.2,93.282,108.518,82.512,146.14,86.1c19,1.826,39.136,4.789,59.914,7.433l3.727-1.67a.547.547,0,0,1,.722.265.531.531,0,0,1-.257.7h-.012l-2.122.951h.011c.716.093,1.412.166,2.129.258l4.178-1.872a.551.551,0,0,1,.722.266.531.531,0,0,1-.258.7h-.012l-2.574,1.153h.01c7.682.94,15.463,1.806,23.267,2.55a8.08,8.08,0,0,1-.069-9.392l-2.131-2.268-16.616,6.721a1.025,1.025,0,0,1-.2.028.536.536,0,0,1-.471-.248l-2.493-3.885a.533.533,0,0,1-.052-.413.512.512,0,0,1,.277-.337l6.277-3.112-3.282-3.742-.164-.045-6.984-1.165a.51.51,0,0,1-.444-.568v0a.534.534,0,0,1,.055-.175L215,67.055a.557.557,0,0,1,.479-.309l14.11-.029,2.445-8.5a.5.5,0,0,1,.5-.384l19.241-.039-2.266-3.24-41.528.069-5.072,6.748a.617.617,0,0,1-.344.206,4.333,4.333,0,0,1-.729.055,4.883,4.883,0,0,1-2.942-.955,4.448,4.448,0,0,1-1.813-2.793.517.517,0,0,1,.153-.438l7.665-7.614a.5.5,0,0,1,.379-.148l45.167-.083a1.282,1.282,0,0,1,.274.07l4.713,3.035.9-2.333a.538.538,0,0,1,.5-.345l27.308-.05a.509.509,0,0,1,.531.484h0v.027l20.673-.077a.634.634,0,0,1,.451.224.566.566,0,0,1,.087.488l-.828,2.429a.5.5,0,0,1-.5.346H301.1l-2.5,20.247c0,.018-.021.017-.021.017v.02l-.847,4.139A11.914,11.914,0,0,1,301.6,83.3c.073.022.131-.013.185.01.68.407,6.656,3.877,7.487,4.349l4.8.584,2.275-3c.022-.037.059-.072.081-.108l.039-.054c.04-.036.114-.032.152-.048a1.926,1.926,0,0,1,.993-.525,10.4,10.4,0,0,1,3.844.07c.461.078,1.013.183,1.6.269,4,.728,10.038,1.769,13.174,2.86.789.242,1.63.829,1.412,2.862a2.569,2.569,0,0,1-2.431,2.439c-.3,0-.6.026-.895.028a62.179,62.179,0,0,1-9.826-1.181l10.078,4.6a.486.486,0,0,1,.282.348.51.51,0,0,1-.08.462,9.178,9.178,0,0,1-2.195,2.153,7.792,7.792,0,0,1-2.677.751l-.168.011-12.853-2.673c-.04.073-.043.128-.1.144l-.807.441a.765.765,0,0,1-.262.061.514.514,0,0,1-.435-.208L313.4,95.581a.519.519,0,0,1-.129-.378l.127-1.369-2.983-.173-3.811,1.8a.374.374,0,0,1-.245.061.51.51,0,0,1-.4-.169l-3.893-4.4a12.052,12.052,0,0,1-7.084,7.885,260.283,260.283,0,0,1,31.108,1.564c11.6,1.4,22.837,3.327,33.936,5.429-.024-1.694,0-3.477.018-5.317a162.379,162.379,0,0,1,1.48-18.455,159.356,159.356,0,0,1,.692,18.5c-.046,1.968-.127,3.86-.237,5.639h.055a8.531,8.531,0,0,1,.053-1.393,14.538,14.538,0,0,1,5.366-9.517,22.21,22.21,0,0,1,7.322-3.9c2.14-3.978,4.191-7.4,5.806-10.146,2.137-3.552,3.592-5.823,3.8-6.141-.107.3-1.13,2.785-2.836,6.62-1.077,2.49-2.518,5.539-4.142,8.894a8.1,8.1,0,0,0,2.745-1.307,3.615,3.615,0,0,0,.8-.851,3.4,3.4,0,0,1-.556,1.073,7.328,7.328,0,0,1-2.637,2.093c-.342.169-.719.354-1.1.539-.814,1.7-1.683,3.463-2.562,5.3a58.17,58.17,0,0,0-3.361,8.768c0,.038-.021.055-.023.092.686-1.377,1.409-3.126,2.306-5.03a20.88,20.88,0,0,1,3.913-5.9,9.455,9.455,0,0,1,1.689-1.381c.424-.279.691-.427.691-.427s-.18.25-.443.646a16.17,16.17,0,0,0-1.06,1.8c-.84,1.519-1.7,3.718-2.848,6.173-1.11,2.378-1.494,6.2-.335,6.433,2.628-5.143,5.272-9.522,7.231-12.879,2.158-3.605,3.612-5.871,3.8-6.141-.108.3-1.113,2.806-2.817,6.621-1.328,3.1-3.2,7-5.3,11.3.7-.6,1.4-1.208,2.1-1.824a28.9,28.9,0,0,0,5.241-6.048c.566-.882,1-1.641,1.265-2.165.268-.508.435-.834.435-.834s-.018.335-.1.943a16.246,16.246,0,0,1-.606,2.489,16.515,16.515,0,0,1-4.76,7.171,34.193,34.193,0,0,1-2.715,2.127c1.362.256,6.786-4.314,9.6-11.547a157.869,157.869,0,0,0,5.868-16.986,24.525,24.525,0,0,0,.763-5.369,18.143,18.143,0,0,0-.045-2.006,14.8,14.8,0,0,1,.38,1.99,21.365,21.365,0,0,1-.031,5.575,76.469,76.469,0,0,1-4.929,17.592c-1.111,2.747-2.342,5.325-3.58,7.7,1.539-2.094,2.939-3.992,3.963-5.427,1.042-1.469,1.885-2.634,1.885-2.634a22.216,22.216,0,0,1-.924,3.114,27.728,27.728,0,0,1-3.75,6.939,25.523,25.523,0,0,1-2.081,2.434c4.276,1.06,10.375-13.627,10.375-13.627a29.067,29.067,0,0,1-.469,3.229,33.386,33.386,0,0,1-.829,3.416,42.117,42.117,0,0,0,2.321-6.74c.305-1.211.507-2.222.615-2.922.112-.682.188-1.092.188-1.092l.143,1.109a18.469,18.469,0,0,1,.119,3.056,24.454,24.454,0,0,1-2.48,9.8c-.9,1.87-2.724,4.877-2.736,5.1.141-.2.28-.395.424-.611,3.307-4.978,6.5-8.845,6.5-8.845a30.567,30.567,0,0,1-1.071,3.085,41.757,41.757,0,0,1-3.551,6.806c.57.1,3.309-4.29,4.5-7.2,2.291-5.514,4.693-9.888,4.693-9.888a28.677,28.677,0,0,1-.467,3.209,39.478,39.478,0,0,1-2.229,7.488,37.592,37.592,0,0,1-3.742,6.87v.02c5.821,1,11.665,1.945,17.535,2.734l.051-.982c.027-.518.092-1.073.18-1.681.094-.721.187-1.441.3-2.142-.329.262-.659.542-.953.786-.816.7-1.5,1.279-1.948,1.7l-.722.651s.131-.346.327-.912a14.915,14.915,0,0,1,1.112-2.416,19.394,19.394,0,0,1,2.994-3.972c.1-.457.233-.917.35-1.357-.232.174-.465.368-.66.542-.819.7-1.5,1.3-1.948,1.721l-.723.65s.111-.348.308-.913a16.073,16.073,0,0,1,1.127-2.416c.165-.307.369-.649.572-.972a18.821,18.821,0,0,1,.562-2.592,22.553,22.553,0,0,1,4.351-8.27l-.438.219c-1.089.574-1.99,1.085-2.6,1.445-.594.36-.959.564-.959.564s.219-.342.624-.915a21.4,21.4,0,0,1,1.981-2.333,23.3,23.3,0,0,1,4.265-3.385,8.6,8.6,0,0,1,.326-.894,8.942,8.942,0,0,1,4.216-4.241c.229-.118.475-.181.7-.281a6.207,6.207,0,0,1,.484-1.09,8.829,8.829,0,0,1,4.516-3.91,11.906,11.906,0,0,1,5.815-.683c.573.066,1.032.166,1.418.24a21.944,21.944,0,0,1,6.162-.552,22.429,22.429,0,0,1,6.876,1.472,3.718,3.718,0,0,0,.409-.014,12.14,12.14,0,0,1,5.715,1.283,8.963,8.963,0,0,1,4.08,4.357,6.369,6.369,0,0,1,.351,1.135c.235.123.452.208.683.351A8.94,8.94,0,0,1,469,90.623c.1.341.167.642.231.924a22.333,22.333,0,0,1,3.873,3.808,17.572,17.572,0,0,1,1.726,2.525c.34.611.542.994.542.994s-.337-.259-.913-.662c-.553-.436-1.395-1.039-2.437-1.73-.126-.08-.269-.181-.394-.262A23.243,23.243,0,0,1,475.1,104.9a20.991,20.991,0,0,1,.272,2.635c.182.363.355.708.485,1.027a14.246,14.246,0,0,1,.855,2.517c.137.583.23.941.23.941l-.651-.722c-.4-.466-1.02-1.113-1.76-1.894a3.473,3.473,0,0,0-.246-.254c.066.486.134.973.183,1.459a20.326,20.326,0,0,1,2.236,3.816c.313.78.523,1.4.7,1.953q7.388-1.066,14.7-2.731c.188-1.851.32-3.313.3-3.591-.668-5.744-6.061-4.963-7.68-10.252-.81-2.647-3.252-8.2-3.285-11.141-.033-4.37,1.148-6.02,1.39-8.851.291-3.444.214-7.315,1.033-10.6.816-3.155,2.541-5.947,2.485-9.24-.048-3.368.88-6.219,1.018-9.577a30.806,30.806,0,0,1,1.381-6.176c1.588-5.9,1.517-12.358,2.957-18.327,1.442-5.948,4.336-14.387,8.713-14.572l.129.007c4.336.633,6.318,9.326,7.137,15.4.836,6.087.092,12.5,1.038,18.535a29.357,29.357,0,0,1,.733,6.286c-.01.184,0,.371-.01.539a11.284,11.284,0,0,0,.532-3.431c-.048-3.367.882-6.219,1.039-9.576A28.275,28.275,0,0,1,512.39,32.9c1.57-5.906,1.5-12.361,2.942-18.328C516.775,8.628,519.668.189,524.045,0l.13.007c4.336.633,6.317,9.326,7.155,15.4.816,6.084.075,12.5,1.024,18.534a28.232,28.232,0,0,1,.732,6.285c-.192,3.353,1.231,5.994.854,9.339a38.356,38.356,0,0,0,.115,9.915,81.687,81.687,0,0,1,1.006,11.727c-.055,2.843-1.323,6.178-1.676,9-1.857,15.3-10.221,13.191-11.481,18.836-.1.4-.3,3.609-.523,6.831,10.168-2.89,19.331,13.2,29.607,11.119a298.5,298.5,0,0,1,34.117-4.843c.065-.164.147-.308.209-.455a1.16,1.16,0,0,0,.226-.767,1.744,1.744,0,0,1,.252-1.268,2.278,2.278,0,0,0,.311-.951,1.937,1.937,0,0,0-.252-.943,1.778,1.778,0,0,1,.221-2.108,1.534,1.534,0,0,0,.356-.743,1.313,1.313,0,0,0-.278-.757,1.676,1.676,0,0,1-.356-1.376,3.415,3.415,0,0,1,.4-.965,1.261,1.261,0,0,0,.254-.935c-.014-.113-.023-.28-.032-.465a2.082,2.082,0,0,0-.391-1.432,4.363,4.363,0,0,1-.543-.624,3.312,3.312,0,0,0-.829-.861,5.514,5.514,0,0,0-.943-.459c-.216-.1-.436-.19-.633-.293a38.653,38.653,0,0,0-4.24-1.763l-.512-.194a6.731,6.731,0,0,1-.943-.44c-.273-.127-.545-.252-.834-.379-.164-.065-.33-.11-.492-.174a2.721,2.721,0,0,1-1.355-.778,3.586,3.586,0,0,1-.343-.558,3.767,3.767,0,0,0-.467-.655,8.955,8.955,0,0,0-1.038-.856c-.233-.16-.483-.34-.7-.52-.392-.336-.8-.655-1.2-.974a14.983,14.983,0,0,0-2.2-1.693,6.584,6.584,0,0,0-1.887-.525,3.367,3.367,0,0,1-1.421-.539,4.064,4.064,0,0,1-1.062-1.022,5.9,5.9,0,0,1,.3,1.017c.069.466.037.763-.117.829a.343.343,0,0,1-.273-.088c.2.364.358.65.276.778-.06.071-.153.084-.319.057a.9.9,0,0,1-.254-.106,1.361,1.361,0,0,1-.326-.184l-.161-.119c-.052-.041-.105-.1-.176-.159-.107-.1-.212-.234-.335-.369a5.117,5.117,0,0,1-.564-.961,4.216,4.216,0,0,1-.227-.626,1.179,1.179,0,0,1-.478.236,2.394,2.394,0,0,1-.7.074,1.892,1.892,0,0,1-.555-.065.757.757,0,0,1,.083.172c.14.207.258.4.38.577a2.867,2.867,0,0,0,.187.251,1.244,1.244,0,0,0,.155.231c.209.29.345.519.266.665-.063.127-.362.166-.781,0a3.634,3.634,0,0,1-.627-.424,2.815,2.815,0,0,1-.561-.66.577.577,0,0,1-.531.213c-.311-.109-.57-1.554-.157-3.782a.868.868,0,0,1-.3.411c-.194.157-.444.33-.715.521-.287.17-.554.324-.784.443a.654.654,0,0,1-.56.064c-.144-.083-.184-.31-.081-.6a2.615,2.615,0,0,1,.166-.325c0-.038-.015-.093-.012-.15a1.256,1.256,0,0,1,.261-.73,3.158,3.158,0,0,1,.2-.249,3.408,3.408,0,0,1-.466-.325,4.671,4.671,0,0,1-.174.828c-.089.3-.225.489-.4.518-.149.012-.325-.166-.438-.486a2.84,2.84,0,0,1-.121-1.271,3.579,3.579,0,0,1,.128-.663c-.081.126-.178.2-.269.171-.278-.032-.435-.6-.47-1.343a1.474,1.474,0,0,1-.332-.409,2.3,2.3,0,0,1-.166-.381c-.023.092-.043.148-.1.162-.152.067-.419-.152-.692-.649a4.18,4.18,0,0,1-.164-.419,3.8,3.8,0,0,1-.142-.489,4.631,4.631,0,0,1-.087-1.175,5.489,5.489,0,0,1,.227-1.142.2.2,0,0,1-.07-.1c-.1.46-.19.771-.341.783-.075.016-.163-.064-.247-.235a.588.588,0,0,1-.068-.154l-.045-.169a1.55,1.55,0,0,1-.089-.452c-.016-.075-.011-.168-.025-.243a1.67,1.67,0,0,0,0-.3c.01-.185.039-.39.068-.609a5.085,5.085,0,0,1,.442-1.353c.065-.164.166-.307.248-.471a.1.1,0,0,0-.035-.058.88.88,0,0,1,.147-.68,2.06,2.06,0,0,1,.277-.32l.157-.142a1.041,1.041,0,0,0,.174-.121,7.737,7.737,0,0,1,.725-.463,5.321,5.321,0,0,1,1.652-.675v-.02c.041-.054.061-.089.1-.143-.152.028-.284.077-.416.108a8,8,0,0,1-.881.155c-.526.066-.856.029-.924-.122-.048-.151.206-.4.649-.655a7.011,7.011,0,0,1,.668-.357c-.184-.047-.294-.127-.3-.221-.03-.15.2-.343.567-.51s.854-.364,1.3-.621a3.6,3.6,0,0,0,.989-.784,2.3,2.3,0,0,1,.375-.407c.122-.2.219-.38.33-.578a1.519,1.519,0,0,1-.2.157,3.638,3.638,0,0,1-.779.351,2.118,2.118,0,0,1-.712.093c-.407-.021-.66-.164-.672-.313-.011-.132.105-.236.3-.376a.1.1,0,0,1-.09-.061c-.137-.207.375-.76,1.188-1.407-.26.025-.5.05-.705.076a2.3,2.3,0,0,0-.547.139,2.415,2.415,0,0,0-.708.373c-.173.121-.271.227-.344.2s-.141-.174-.053-.449a1.676,1.676,0,0,1,.288-.5c-.524.046-.893-.011-.939-.181-.014-.074.046-.163.163-.251-.169.03-.373.037-.58.063-.579.044-1.308-.218-1.207-.342.339-.466,3.219-.446,3.824-.638a1.453,1.453,0,0,1-.277-.051c-.457-.1-.729-.261-.72-.429s.294-.285.727-.389c-.926-.068-1.656-.327-1.64-.625.017-.335.865-.569,1.9-.534a1.8,1.8,0,0,1,.721-.37,3.977,3.977,0,0,1,.938-.152.356.356,0,0,1,.13-.013,4.128,4.128,0,0,1-.845-.528c-.268-.2-.407-.393-.364-.539.046-.164.292-.244.643-.226a2.94,2.94,0,0,1,1.3.369,3.055,3.055,0,0,1,1.053.816.875.875,0,0,1,.218.457c.073.022.128.045.182.066V60.4c-.052-.079-.1-.173-.154-.268a2.841,2.841,0,0,1-.184-.31c-.137-.212-.278-.424-.429-.655-.173-.232-.33-.444-.488-.64-.088-.078-.157-.174-.247-.253a2.517,2.517,0,0,0-.209-.252c-.246-.293-.438-.524-.356-.67.063-.147.38-.166.836,0,.111.044.219.086.345.149.126.082.253.163.378.261a3.211,3.211,0,0,1,.7.725c.08.111.155.227.224.346a2.056,2.056,0,0,1,.053-.331,4.1,4.1,0,0,0-.317-.317l-.245-.274q-.158-.151-.3-.316c-.214-.2-.462-.434-.71-.651-.268-.22-.518-.419-.77-.6-.108-.082-.232-.18-.34-.259a3.077,3.077,0,0,1-.3-.222c-.4-.262-.645-.46-.619-.626.046-.147.4-.22.936-.119a1.931,1.931,0,0,1,.421.115,2.531,2.531,0,0,1,.474.192,4.891,4.891,0,0,1,.988.647,3.905,3.905,0,0,1,.287.274.92.92,0,0,0-.067-.133c-.134-.287-.287-.555-.42-.824-.138-.248-.276-.48-.375-.67-.221-.4-.336-.687-.217-.813.1-.125.428-.034.84.267a.7.7,0,0,1,.125.1v-.017c-.138-.23-.22-.419-.157-.566.082-.144.31-.184.637-.1a1.555,1.555,0,0,1,.506.25,2.439,2.439,0,0,1,.515.489.492.492,0,0,0,.086.135v-.056a8.893,8.893,0,0,1,.143-1.312c.091-.349.2-.585.365-.612.151-.012.344.184.472.544a3.415,3.415,0,0,1,.205,1.441v.021l.059-.053c.115-.107.25-.193.348-.283.1-.069.174-.121.25-.172a1.4,1.4,0,0,1,.146-.308,1.181,1.181,0,0,1,.2-.29,2.417,2.417,0,0,1-.57-.123c-.3-.09-.471-.247-.462-.416,0-.315.7-.559,1.535-.621s2.862.817,2.9.689c-.4-.206-.831-.451-1.322-.663a4.94,4.94,0,0,0-1.619-.385c-.443-.043-.759-.021-.845-.174-.033-.058-.009-.168.109-.3a1.716,1.716,0,0,1,.594-.36,2.7,2.7,0,0,1,1.009-.133,4.246,4.246,0,0,1,1.213.268,4.98,4.98,0,0,1,.868.491c-.1-.172-.2-.364-.324-.574-.185-.289-.38-.576-.551-.83-.188-.251-.367-.485-.5-.677-.281-.386-.449-.674-.367-.82.1-.125.449-.069.937.216a1.421,1.421,0,0,1,.377.261,2.66,2.66,0,0,1,.391.335.442.442,0,0,1,.107.1c-.016-.057-.013-.113-.027-.168a4.153,4.153,0,0,1,.105-.981,2.618,2.618,0,0,1,.3-.747c.221-.4.492-.569.62-.506.164.065.187.361.184.753-.009.185,0,.409-.015.649-.009.167,0,.336-.01.522a1.219,1.219,0,0,0,.142-.178,2.729,2.729,0,0,1,.317-.319.7.7,0,0,0,.136-.106c.058-.033.1-.069.135-.085.171-.084.306-.1.354-.037.125.1-.023.444-.2.956a.955.955,0,0,1-.085.2c-.023.073-.027.148-.049.221a.864.864,0,0,0-.068.238c.117-.106.252-.212.369-.317a5.93,5.93,0,0,1,.545-1.16,4.809,4.809,0,0,1,1.008-1.158c.328-.242.593-.341.714-.241.089.06.1.2.054.41a7.613,7.613,0,0,1,.62-.5c.388-.3.71-.411.834-.293.143.138-.028.539-.357,1.084.532-.2.6-1.55.393-1.783-.21-.216-.613-1.073-.512-1.218a.532.532,0,0,1,.563-.1,1.948,1.948,0,0,1,.827.527,5.4,5.4,0,0,0,.6.572,10.4,10.4,0,0,0-1.143-1.231,4.083,4.083,0,0,1-.6-.626c-.137-.208-.22-.4-.138-.547a.486.486,0,0,1,.417-.179c-.033-.058-.069-.1-.1-.154-.238-.4-.356-.687-.258-.814.1-.107.429-.034.861.245a3.559,3.559,0,0,1,.67.592,4.449,4.449,0,0,1,.643.87,5.194,5.194,0,0,1,.431,1.009c.1.3.383.168.4-.2a3.465,3.465,0,0,0-.565-1.982c-.293-.478-.574-.773-.492-.915.039-.072.152-.085.353-.037a1.917,1.917,0,0,1,.76.411,3.147,3.147,0,0,1,.8,1.008c.066.149.125.3.176.455a4.26,4.26,0,0,1,.7-.578c.039-.015.077-.052.115-.068.3-.8.772-1.355,1.087-1.245.2.066.278.441.2.9.091.023.146.064.16.121.049.133-.072.312-.268.526h.094l.019-.019a4.607,4.607,0,0,1,1.215-1.2c.384-.242.685-.3.791-.182l.017.019c.042-.072.063-.145.1-.217.143-.234.3-.4.466-.386.112.006.218.105.3.275a4.2,4.2,0,0,1,2.09-1.21.932.932,0,0,1-.224.006c-.261.025-.5.03-.7.038-.41,0-.7-.037-.771-.189-.068-.133.131-.385.553-.6a3,3,0,0,1,.758-.3,4.3,4.3,0,0,1,1.009-.133h.092a.445.445,0,0,1-.049-.486c.1-.144.288-.171.53-.158a3.494,3.494,0,0,1,.791.208,2.988,2.988,0,0,1,.7.37.791.791,0,0,1,.006-.462c.042-.128.1-.18.177-.2.15-.028.311.092.49.213a.113.113,0,0,1,.022-.075c.1-.143.378-.129.744-.016a4.7,4.7,0,0,1,1.28.755,4.192,4.192,0,0,1,.983,1.111.989.989,0,0,1,.192.605h.018c-.027-.225-.05-.468-.076-.693a5.765,5.765,0,0,0-.108-.785.961.961,0,0,1,.009-.557.278.278,0,0,1,.247-.1.794.794,0,0,1,.4.151,1.655,1.655,0,0,1,.646,1.189,1.863,1.863,0,0,1,0,.334,2.589,2.589,0,0,1,1.008-.411.8.8,0,0,1,.534.064,2.27,2.27,0,0,1,.731-.463c.307-.114.544-.1.631.015.1.136.037.354-.088.609a2.758,2.758,0,0,0-.161.252,4,4,0,0,1,.555-.343,3.791,3.791,0,0,1,1.6-.4c.407,0,.663.109.713.238l.019-.017c.1-.143.324-.169.6-.117h.019a.436.436,0,0,1-.052-.413c.1-.125.323-.15.635-.079a3.269,3.269,0,0,1,1.049.556,2.6,2.6,0,0,1,.32.3c-.081-.228-.072-.4.027-.5.232-.211.833.024,1.424.482-.087-.134-.154-.249-.223-.365-.117-.247-.177-.455-.082-.58.084-.144.324-.169.635-.041a2.084,2.084,0,0,1,.944.774,2.16,2.16,0,0,1,.22.4,1.268,1.268,0,0,1,.567-.51.464.464,0,0,1,.556.029.616.616,0,0,1,.067.5,5.667,5.667,0,0,1-.2.641,1.958,1.958,0,0,1,.724,0c.314.053.491.192.522.343a.919.919,0,0,1,.328.127c.077-.032.152-.066.228-.1a1.6,1.6,0,0,1,.693-.1.543.543,0,0,1,.4.208,1.236,1.236,0,0,1,.238.066,1.579,1.579,0,0,1,.5.344,2.63,2.63,0,0,1,.317.35l-.1-.283a.805.805,0,0,0-.065-.209.9.9,0,0,1-.065-.189c-.2-.473-.349-.819-.211-.922.06-.071.17-.048.331.037a.387.387,0,0,1,.129.063.588.588,0,0,1,.142.1,2.224,2.224,0,0,1,.321.3l.157.175.155.231a3.077,3.077,0,0,1,.275.5,4.345,4.345,0,0,1,.332,1.15,1.845,1.845,0,0,1,.209-.175c.251-.172.46-.235.6-.154.109.062.156.214.127.417a2.723,2.723,0,0,1,.525-.066,1.514,1.514,0,0,1,.26-.023l.242.013a2.174,2.174,0,0,1,.4.077c.055.021.111.024.165.045a.829.829,0,0,1,.127.062c.163.083.233.163.228.254-.026.165-.366.24-.838.383a.585.585,0,0,0-.19.064.935.935,0,0,0-.2.065,2.5,2.5,0,0,0-.418.163,6.6,6.6,0,0,0-.9.475,2.473,2.473,0,0,0-.212.137,1.634,1.634,0,0,0,.285-.115,4.38,4.38,0,0,1,.921-.175,4.258,4.258,0,0,1,.964.031,3.477,3.477,0,0,1,.73.243c.4.187.592.422.529.566-.045.164-.326.206-.7.242-.186.009-.409.017-.65.023-.056,0-.113.012-.168.009.127.063.253.125.362.186.018,0,.037.02.055.021a3.123,3.123,0,0,1,.961-.265c.337-.021.574.067.622.217s-.074.35-.307.541c-.02.037-.059.053-.1.088a4.823,4.823,0,0,1,.982-.3,4.555,4.555,0,0,1,1.212-.03,4.279,4.279,0,0,1,.514.1l.22.067a.664.664,0,0,1,.2.084c.509.212.755.5.692.631-.084.162-.4.166-.862.16a.682.682,0,0,1-.186.008.835.835,0,0,0-.206.008,3.086,3.086,0,0,0-.408.016,2.58,2.58,0,0,0-.393.018.156.156,0,0,1,.048.115c.015.111-.065.219-.217.322a.89.89,0,0,1,.529.213,2.16,2.16,0,0,1,.437.488.066.066,0,0,1,.019.037.36.36,0,0,1,.1-.162c.135-.085.372-.016.64.219a1.962,1.962,0,0,1,.572.811.3.3,0,0,1,.151-.048c.166.009.325.147.4.413a.38.38,0,0,1,.031.132c.038-.036.077-.052.1-.088l.136-.123c.04-.036.079-.088.119-.124.155-.14.293-.285.461-.291a.287.287,0,0,1,.234.142.37.37,0,0,1,.066.152.472.472,0,0,1,.044.225l-.014.278a2.618,2.618,0,0,1-.109.312,1.927,1.927,0,0,1-.421.572c.722.058,1.235.215,1.279.458-.008.148-.615,1.083-.619,1.157a10.205,10.205,0,0,1,1.173-.031c.39.02.663.109.694.258s-.152.364-.513.551a5.325,5.325,0,0,1-1.151.348.338.338,0,0,0,.129.026,3.964,3.964,0,0,1,1.561.713c.339.277.473.525.391.67s-.358.132-.765.073a1.6,1.6,0,0,0-.965.341.345.345,0,0,1-.217.211c.207-.025.412-.035.581-.062.447-.033.762-.016.829.117.034.076-.01.185-.108.31.152-.066.308-.151.458-.235.116-.087.25-.173.367-.261a.9.9,0,0,0,.173-.121c.057-.033.1-.087.156-.122.388-.313.624-.563.788-.5.071.042.105.136.1.321l-.008.149a.527.527,0,0,0-.046.165,1.071,1.071,0,0,0-.063.127,1.284,1.284,0,0,1,.03.15,1.524,1.524,0,0,1-.286.859,1.894,1.894,0,0,1-.3.356l.459-.255a10.875,10.875,0,0,0,.555-.341c.327-.189.557-.325.7-.243s.147.379-.078.8a1.187,1.187,0,0,1-.216.3,2.409,2.409,0,0,1-.3.338c-.019.037-.076.052-.116.087.259.05.44.115.488.248a20.552,20.552,0,0,0-.789,2c-.141.55.657,1.987.657,1.987l2.872,6.4s-.1-.172,1.522,3.986,0-.056-3.252,7.781.061-.078-.364,5.929c-.042.585-.068,1.062-.083,1.451l-.631.474a14.63,14.63,0,0,0-1.609.632,21.546,21.546,0,0,1-2.942.7,1.72,1.72,0,0,1-.238-.4c-.082-.2-.162-.454-.263-.715a21.194,21.194,0,0,0-1.971,2.5,3.344,3.344,0,0,1-.164.307,1.9,1.9,0,0,1-1.065,1.21,3.445,3.445,0,0,1-1.286.1,6.039,6.039,0,0,0-1.024.04,6.114,6.114,0,0,0-2.03.768,23.953,23.953,0,0,1-3.744,1.962c-.513.235-1.067.5-1.582.755a20.2,20.2,0,0,1-2.834,1.23c-.473.142-.945.286-1.4.411-1.395.373-2.963.479-4.2,1.474s-.726,1.821-.274,2.756c.1.228.215.5.33.8a2.544,2.544,0,0,1-.5,2.111,6.674,6.674,0,0,0-.371.724c-.088.236.012.466.179.827a4.658,4.658,0,0,1,.552,2.633,5.643,5.643,0,0,1-.392,1.467c-.07.257-.158.531-.242.788l1.411,3.7S1283.139,95.088,1920,276.014ZM278.371,90.066l-5.78.015c-.02,0,0,.019-.022.036L270.9,92.281a.638.638,0,0,1-.437.2l-19.835.027a8.139,8.139,0,0,1-2.415,5.378c12.533.929,25.13,1.38,37.73,1.069h0A12.089,12.089,0,0,1,278.371,90.066ZM372.1,96.58c.478-.976.935-1.9,1.411-2.831a29.493,29.493,0,0,0-4.7,3.175,17.417,17.417,0,0,0-5.7,8.107c-.137.476-.252.9-.33,1.322,1.968.38,3.92.761,5.872,1.123h0c.084-.536.17-1.093.287-1.658A42.368,42.368,0,0,1,372.1,96.58Zm103.267,18.668c-.176-.194-.388-.392-.6-.607.039.69.041,1.375.043,2.083h0c.562-.083,1.141-.164,1.7-.247C476.175,116.128,475.807,115.717,475.365,115.248Zm40.657-16.53c-.528-4.528-4-5-6.222-7.6a2.831,2.831,0,0,0-.059.389c-1.874,15.3-10.239,13.19-11.5,18.829-.027.184-.082.885-.172,1.887,5.726-1.413,11.42-2.994,17.119-4.612h0C515.564,103.936,516.086,99.243,516.022,98.718ZM562.1,85.07h-.016a3.535,3.535,0,0,1-.578-.327,1.232,1.232,0,0,1-.348.241c.02,0,.037.021.055.021.2.049.385.114.55.159a.2.2,0,1,0,.335-.089Zm5.278.089a.309.309,0,0,0-.09-.079.657.657,0,0,1-.015.279.811.811,0,0,1-.628.655,4.789,4.789,0,0,0,.492.174,3.344,3.344,0,0,0,.81.155,8.284,8.284,0,0,1-.572-1.185Zm8.228-4.516h-.007a.912.912,0,0,0-.132.049,1.188,1.188,0,0,1-.615,0,.065.065,0,0,1-.054-.021c-.314.653-.652,1.068-.871,1.015-.148-.044-.212-.234-.232-.532a1.5,1.5,0,0,1-.1.162c-.081.144-.143.234-.2.323a.415.415,0,0,1-.176.176.3.3,0,0,1-.116.106c0,.018-.021.017-.021.017.008.224,0,.391-.1.479a.248.248,0,0,1-.277-.015.538.538,0,0,1-.2-.1.948.948,0,0,1-.19-.2.788.788,0,0,1-.122-.154,3.394,3.394,0,0,1-.585-.885c-.214.156-.009,1.245.093,1.772.037-.016.057-.015.094-.033l.021-.017.035.019c.043.019.085.04.127.063a16.806,16.806,0,0,1,2.387,1.3c.644.481,1.1.615,1.371.424C576.392,84.125,575.9,81.774,575.6,80.643ZM571.67,83.95c-.307-.164-.578-.308-.832-.435.014.337-.055.556-.2.605h0c-.152.048-.364-.131-.593-.4a8.755,8.755,0,0,1-.518-.735c.017.019.015.057.033.1.077.283.121.507,0,.631-.118.107-.376.074-.68-.147a2.129,2.129,0,0,1-.214-.2.384.384,0,0,1-.334.021,2.036,2.036,0,0,1,.115.637c.222.365.377.616.3.759-.019.019-.04.036-.058.035a9.73,9.73,0,0,0,2.746,3.656,11.038,11.038,0,0,0,4.284,1.952c.9.14,1.468.038,1.687-.266.217-.322.057-1.093-.034-1.5l-.028-.132c-.388-1.794-3.555-3.464-5.669-4.58Zm8.875-3.062a.242.242,0,0,1,.012.1,1.271,1.271,0,0,1-.067.611c-.063.128-.141.2-.215.194-.092,0-.164-.065-.231-.179a3.668,3.668,0,0,1-.281-.387c-.1-.153-.242-.328-.4-.542s-.33-.444-.52-.716c.015.057.031.132.045.208.059.282.12.544.16.788.062.226.106.453.152.641.073.4.1.673-.057.758-.135.085-.408-.039-.705-.39a2.863,2.863,0,0,1-.411-.653,1.511,1.511,0,0,1-.134-.322c-.134.067-.35-.036-.562-.271a1.652,1.652,0,0,1-.307-.517,2.524,2.524,0,0,1-.139-.547,2.979,2.979,0,0,1-.452.5c.028.185.09.431.15.7.381,1.622,1.06,4.646,1.258,5.12a.719.719,0,0,0,.7.408c.26,0,.884-.195,1.235-1.609.115-.4.244-.824.38-1.226.066-.181.131-.363.2-.548.2-.639.4-1.281.534-1.7-.1-.134-.218-.285-.34-.42ZM579.43,89.45l-.007.15a3.689,3.689,0,0,0,.292,1.892,2.455,2.455,0,0,0,1.3.775c.091.041.2.085.294.128a12.561,12.561,0,0,0,1.411.407,7.474,7.474,0,0,1,1.882.619,4.6,4.6,0,0,1,.841.62c.692.576,1.5,1.212,2.2,1.007h0a.349.349,0,0,0,.234-.188c.167-.363-.223-1.089-.51-1.629-.1-.206-.2-.383-.252-.514-.133-.341-.282-.684-.413-1.023a19.479,19.479,0,0,1-.9-2.409l-.188-.679a7.783,7.783,0,0,0-.864-2.331c-.515-.808-1.577-2.186-3.115-4.069-.088.255-.2.584-.35.948-.672,1.967-1.847,5.277-1.845,6.3Zm6.087-10.134h0a.162.162,0,0,1-.092.013c-.224-.011-.368-.465-.407-1.136-.116-.265-.25-.533-.333-.742a4.23,4.23,0,0,0-.025.464c-.01.2.018.393.011.54a.351.351,0,0,1-.108.273c-.076.052-.187.029-.312-.072a1.4,1.4,0,0,1-.4-.541.23.23,0,0,1-.1.088c-.134.069-.333-.036-.523-.328a2.066,2.066,0,0,1-1.675,1.809,5.2,5.2,0,0,0,1.082.392c.551.141.957.18,1,.331.014.074-.065.181-.255.266a2.114,2.114,0,0,1-.813.217,3.6,3.6,0,0,1-1.239-.121.119.119,0,0,0-.073-.022c.191.178.406.393.635.629.176.175.354.334.53.509.055.041.106.118.177.176.372.373,1.046,1.078,1.469,1.063.838-.049,1.934-.384,2.231-1.091.228-.528-.169-1.385-.553-2.223-.053-.151-.143-.321-.222-.493Zm4.406-.382h0a.16.16,0,0,1-.049-.132.386.386,0,0,1-.465-.025c-.018,0-.035-.019-.054-.041-.178.233-.387.316-.533.252a.6.6,0,0,1-.251-.514,7.97,7.97,0,0,1,.094-1.464c-.074,0-.261.378-.369.631a.448.448,0,0,1,.011.167c0,.3.01.523.02.709.027.167.058.3.089.431a.6.6,0,0,1,.029.152.163.163,0,0,1-.007.13.126.126,0,0,1-.116.068c-.019.019-.075.016-.113.014a18.126,18.126,0,0,0,.974,1.667,5.28,5.28,0,0,1,.673-1.508,2.7,2.7,0,0,1,.261-.378.281.281,0,0,1-.189-.158Zm.313,2.522h0c-.107-.1-.058-.319.088-.61a2.752,2.752,0,0,1-.76.662,3.782,3.782,0,0,0,.708.688,3.652,3.652,0,0,1,.476.471l.013-.259a4.4,4.4,0,0,1,.162-.939c.022-.075.064-.147.085-.219-.361.264-.662.326-.767.207Zm.8,3.314c-.136-.229-.253-.476-.372-.688a4.407,4.407,0,0,0-1.091-1.543,16.278,16.278,0,0,1-1.851-2.923c-.2-.382-.389-.708-.527-.939a.255.255,0,0,1-.2-.046.482.482,0,0,1-.144-.434c-.036-.04-.088-.079-.141-.138a2.329,2.329,0,0,1-.449-.674c-.04.036-.06.071-.1.107a5.776,5.776,0,0,1-.175.864c.066.154.152.288.218.438a19.562,19.562,0,0,1,1.3,2.858c.052.782-.468,1.127-.987,1.451a3.382,3.382,0,0,0-.68.559c-.478.607.317,1.429.793,1.919l.072.06a5.536,5.536,0,0,0,.549.512,3.764,3.764,0,0,1,1.381,1.691,2.265,2.265,0,0,1-.027.872,2.627,2.627,0,0,0-.031.927h-.011a5.012,5.012,0,0,0,1.519,2.273c.211.212.423.43.6.645a1.778,1.778,0,0,1,.209.271c.261.329.7.89.937.938.329.073.512-.233.715-.539a.794.794,0,0,1,.1-.162,4.382,4.382,0,0,0,.96-3.055,2.219,2.219,0,0,0-.492-.919c-.1-.154-.207-.312-.309-.479a4.279,4.279,0,0,1-.373-1.4,3.22,3.22,0,0,0-.809-1.623,5.6,5.6,0,0,1-.578-.822Zm3.051-3.219h-.01a3.151,3.151,0,0,1-.121.9,5.813,5.813,0,0,1-1.226,1.777c-.168.028-.363-.169-.511-.548a2.883,2.883,0,0,1-.131-.7,7.33,7.33,0,0,1,.386-1.653c.123-.194.109-.663-.017-.744-.025.129-.088.274-.135.439-.087.237-.157.513-.241.788s-.158.532-.242.789c-.068.238-.117.46-.185.66a1.744,1.744,0,0,1-.21.473c.05.114.1.228.167.362.182.455.431,1.024.869,1.16.3.09.992-.488,1.7-1.193a10.528,10.528,0,0,1,.155-1.2,2.243,2.243,0,0,0-.242-1.314Zm2.56,4.428a22.4,22.4,0,0,1-.481-2.218c-.569.564-1.312,1.269-1.545,1.462-.586.546-1.261,1.384-.988,2.2.174.51.9,1.572,1.473,1.695h0c.458.08.748-.483,1.017-1.008a3.165,3.165,0,0,1,.367-.595,12.477,12.477,0,0,1,1.122-1.2c.038-.087.08-.171.126-.253a5.361,5.361,0,0,0,.439-1.316,3.062,3.062,0,0,1-.347.6,2.107,2.107,0,0,1-.488.5c-.306.21-.584.255-.689.134Zm1.571-45.431a1.421,1.421,0,0,1-.5.4c-.1.051-.211.119-.345.182a.708.708,0,0,0,.133-.049c.319-.076.6-.135.863-.178a.88.88,0,0,1-.145-.354ZM611.587,78.63c-.3.018-.57-.422-.646-1a4.3,4.3,0,0,1-.457-.524,4.609,4.609,0,0,1,.182.436,7.155,7.155,0,0,1,.417,1.249,3.7,3.7,0,0,1,.1.6,1.37,1.37,0,0,1,.025.263v.092c.186-.362.371-.724.515-1.014-.041-.024-.074-.062-.13-.1Zm2.556,4.783a1.965,1.965,0,0,1-.374.444c-.234.188-.459.256-.585.17-.127-.063-.175-.21-.164-.416-.074,0-.147-.064-.231-.2a.393.393,0,0,1-.068-.115.619.619,0,0,1-.069-.153,2.029,2.029,0,0,1-.089-.4.891.891,0,0,1-.026-.224,1.13,1.13,0,0,1,0-.26,2.95,2.95,0,0,1,.047-.555A4.634,4.634,0,0,1,613,80.516a3.715,3.715,0,0,0,.246-.877.791.791,0,0,1,.028-.2.966.966,0,0,1,.05-.219.165.165,0,0,0,.022-.092.888.888,0,0,1-.28.041,1.734,1.734,0,0,1-.191.1c-.343.82-.61,1.344-.831,1.314-.3.748-.661,1.621-.938,2.294s-.468,1.146-.469,1.166a1.492,1.492,0,0,1-.085.181c-.277.711-1.15,2.859-.691,3.292.124.118.348.092.651-.04a12.258,12.258,0,0,0,2.467-1.675c.233-.173.465-.367.7-.54a2.3,2.3,0,0,1,.054-.35,2.888,2.888,0,0,1,.306-.874,3.522,3.522,0,0,1,.284-.451,1.57,1.57,0,0,1-.174-.172ZM607.9,92.088a1.8,1.8,0,0,0,.493-.175,2.944,2.944,0,0,1,.511-.2,6.129,6.129,0,0,1,.843-.107c.131-.011.241,0,.372-.016A18.626,18.626,0,0,0,614,90.6l.2-.064a4.083,4.083,0,0,0,1.548-.867,6.192,6.192,0,0,0,.793-.888,4.574,4.574,0,0,1-.279-.742h.014c-.047-.153-.077-.284-.124-.453a1.448,1.448,0,0,1-.122.179c-.4.464-.774.592-.879.475-.124-.119,0-.427.138-.867a4.525,4.525,0,0,0,.169-.772,3.173,3.173,0,0,0,.028-.928c0,.018-.02.037-.021.055a9.283,9.283,0,0,1-.445,1.036c-.165.271-.323.431-.488.423a.253.253,0,0,1-.145-.064.471.471,0,0,1-.1.051c-.132.029-.309-.128-.439-.45a11,11,0,0,1-2.03,1.141c-.363.167-.744.353-1.131.555a4.867,4.867,0,0,0-1.487,1.465l-.142.215c-.081.089-.177.2-.278.321-.4.5-.96,1.2-.874,1.667Zm-10.925,4.6a7.1,7.1,0,0,0,.781-.72,5.048,5.048,0,0,1,.937-.845,4.532,4.532,0,0,1,2.316-.581,3.941,3.941,0,0,0,2.472-.709,11.539,11.539,0,0,1,1.1-.832,5.473,5.473,0,0,0,2.02-2.033l.185-.362a10.833,10.833,0,0,0,1.457-4.051A6.053,6.053,0,0,1,608.9,84.3c.042-.072.335-.671.748-1.5.063-.145.145-.293.223-.451a1.425,1.425,0,0,1-.282-.648c-.059-.281-.115-.637-.168-1.048a6.215,6.215,0,0,1-.582,1.562c-.246.435-.5.681-.647.636l-.019-.019a.062.062,0,0,0-.036.016c-.154.085-.371,0-.583-.231a1.809,1.809,0,0,1-.4-.839c-.115.068.2,1.906-.088,2.04-.307.132-.8-.321-1.135-1.026a2.158,2.158,0,0,0-.179.214.626.626,0,0,0,.1.2c.176.2.316.371.457.508.243.313.4.543.336.687-.082.145-.379.147-.818,0a3.009,3.009,0,0,1-.7-.408.1.1,0,0,1-.072-.042c-.162.215-.324.449-.482.682-.582.824-1.142,1.594-1.319,1.771a6.56,6.56,0,0,0-1.534,2.672,3.114,3.114,0,0,1-1.475,1.561,8.228,8.228,0,0,0-.714.5,7.965,7.965,0,0,0-1.324,1.492c-.3.376-.6.787-.912,1.106a2.359,2.359,0,0,0-.782,1.8,3.439,3.439,0,0,1-.178.92,2.109,2.109,0,0,0-.1.218,1.781,1.781,0,0,0-.226.489c.018,0,.019-.015.038-.014v-.006h.02a3.645,3.645,0,0,0,.916-.455Z" transform="translate(-0.001 -0.004)"/></svg>